<?xml version="1.0" encoding="utf-8"?><!-- Uploaded to: SVG Repo, www.svgrepo.com, Generator: SVG Repo Mixer Tools -->
<svg fill="#000000" width="800px" height="800px" viewBox="0 0 24 24" id="gold-medal-2" data-name="Flat Color" xmlns="http://www.w3.org/2000/svg" class="icon flat-color"><path id="secondary" d="M21.94,17.89a1,1,0,0,1-.65.63l-2.71.8-1.69,2.27a1,1,0,0,1-.8.41h0a1,1,0,0,1-.81-.43l-2.88-4.11a1,1,0,0,1-.1-1,1,1,0,0,1,.75-.6,5.94,5.94,0,0,0,4.19-3,1,1,0,0,1,.82-.51,1,1,0,0,1,.87.43L21.82,17A1,1,0,0,1,21.94,17.89Zm-11-2a5.94,5.94,0,0,1-4.19-3,1,1,0,0,0-1.69-.08L2.18,17a1,1,0,0,0,.54,1.53l2.7.8,1.69,2.27a1,1,0,0,0,.8.41h0a1,1,0,0,0,.81-.43l2.88-4.11a1,1,0,0,0,.1-1A1,1,0,0,0,11,15.9Z" style="fill: rgb(44, 169, 188);"></path><path id="primary" d="M19.69,8.21a3.4,3.4,0,0,1-.3-.61,3.57,3.57,0,0,1-.11-.68,3.44,3.44,0,0,0-.53-1.79A3.67,3.67,0,0,0,17.17,4a4.47,4.47,0,0,1-.62-.31A3.65,3.65,0,0,1,16,3.2a3.41,3.41,0,0,0-1.44-1.08,3.48,3.48,0,0,0-1.85,0,2.69,2.69,0,0,1-1.38,0,3.33,3.33,0,0,0-1.87-.06A3.4,3.4,0,0,0,7.9,3.29a2.94,2.94,0,0,1-.45.47,3.94,3.94,0,0,1-.62.31A3.58,3.58,0,0,0,5.3,5.13,3.5,3.5,0,0,0,4.76,7a3.42,3.42,0,0,1-.1.66,3.38,3.38,0,0,1-.31.58A3.55,3.55,0,0,0,3.72,10a3.41,3.41,0,0,0,.66,1.8,3.07,3.07,0,0,1,.33.59,3.57,3.57,0,0,1,.11.68,3.44,3.44,0,0,0,.53,1.8A3.6,3.6,0,0,0,6.91,16a3.46,3.46,0,0,1,.61.3,3.91,3.91,0,0,1,.49.5,3.59,3.59,0,0,0,1.48,1.13,3.38,3.38,0,0,0,1.85-.05,2.92,2.92,0,0,1,1.41,0,4.54,4.54,0,0,0,1.11.17,2.55,2.55,0,0,0,.75-.12,3.79,3.79,0,0,0,1.58-1.21,4.88,4.88,0,0,1,.44-.46,3.8,3.8,0,0,1,.58-.3,3.5,3.5,0,0,0,1.49-1,3.53,3.53,0,0,0,.54-1.82,3.3,3.3,0,0,1,.1-.66,3.28,3.28,0,0,1,.3-.59,3.4,3.4,0,0,0,.64-1.8A3.65,3.65,0,0,0,19.69,8.21Z" style="fill: rgb(0, 0, 0);"></path></svg>